<svg xmlns="http://www.w3.org/2000/svg" xmlns:xlink="http://www.w3.org/1999/xlink" version="1.1" x="0px" y="0px" viewBox="0 0 100 125" enable-background="new 0 0 100 100" xml:space="preserve"><path d="M71.301,83.424H28.7c-0.966,0-1.75-0.783-1.75-1.75V52.68c0-0.967,0.784-1.75,1.75-1.75s1.75,0.783,1.75,1.75v27.244h39.101  V52.68c0-0.967,0.783-1.75,1.75-1.75s1.75,0.783,1.75,1.75v28.994C73.051,82.641,72.268,83.424,71.301,83.424z M73.051,30.714  V18.326c0-0.966-0.783-1.75-1.75-1.75H62.78c-0.967,0-1.75,0.784-1.75,1.75v3.869c0,0.966,0.783,1.75,1.75,1.75  s1.75-0.784,1.75-1.75v-2.119h5.021v10.639c0,0.966,0.783,1.75,1.75,1.75S73.051,31.681,73.051,30.714z M81.362,49.688  c0.684-0.683,0.684-1.792,0-2.475L51.237,17.088c-0.684-0.684-1.791-0.684-2.475,0L18.638,47.213c-0.684,0.683-0.684,1.792,0,2.475  c0.684,0.684,1.791,0.684,2.475,0L50,20.801l28.888,28.887c0.342,0.342,0.789,0.513,1.237,0.513S81.021,50.03,81.362,49.688z"/><text x="0" y="115" fill="#000000" font-size="5px" font-weight="bold" font-family="'Helvetica Neue', Helvetica, Arial-Unicode, Arial, Sans-serif">Created by Dara Ullrich</text><text x="0" y="120" fill="#000000" font-size="5px" font-weight="bold" font-family="'Helvetica Neue', Helvetica, Arial-Unicode, Arial, Sans-serif">from the Noun Project</text></svg>